<svg xmlns="http://www.w3.org/2000/svg" class="graphdiagram" viewBox="-1095.1263644793626 -757.2566047624706 2102.471621644811 1221.3998809195575"><g class="layer relationships"><g class="related-pair"><g class="relationship" transform="translate(-566.9124595642087,-446.49936828613323) rotate(-6.685898820529162)"><path class="relationship" d="M 89.43270955036813 4 L 697.2654345265973 4 L 697.2654345265973 16 L 729.2654345265973 0 L 697.2654345265973 -16 L 697.2654345265973 -4 L 89.43270955036813 -4 Z" fill="rgb(0, 0, 0)" stroke="rgb(51, 51, 51)" stroke-width="0px"/><text class="type" text-anchor="middle" baseline-shift="30%" alignment-baseline="alphabetic" x="393.34907203848275" y="0" font-size="50px" font-family="&quot;Gill Sans&quot;, &quot;Gill Sans MT&quot;, Calibri, sans-serif">IS_LOCATED_IN</text></g></g><g class="related-pair"><g class="relationship" transform="translate(-620.9116439819338,136.9572772979737) rotate(-84.71231196449736)"><path class="relationship" d="M 134.06063604792996 4 L 464.5174326921589 4 L 464.5174326921589 16 L 496.5174326921589 0 L 464.5174326921589 -16 L 464.5174326921589 -4 L 134.06063604792996 -4 Z" fill="rgb(0, 0, 0)" stroke="rgb(51, 51, 51)" stroke-width="0px"/><text class="type" text-anchor="middle" baseline-shift="30%" alignment-baseline="alphabetic" x="299.2890343700444" y="0" font-size="50px" font-family="&quot;Gill Sans&quot;, &quot;Gill Sans MT&quot;, Calibri, sans-serif">OWNS</text></g></g><g class="related-pair"><g class="relationship" transform="translate(-566.9124595642087,-446.49936828613323) rotate(25.110999795166613)"><path class="relationship" d="M 87.50997233706767,-18.87363979433118 L 88.8454810734168,-10.985901435642102 A 3069.1286556429213 3069.1286556429213 0 0 1 1036.7701406190927,-22.98906027573634 L 1035.067108813615,-11.110521532711918 L 1069.0139212023169,-22.407155042137962 L 1039.608526961555,-42.786624847443704 L 1037.9054951560774,-30.908086104419286 A 3077.1286556429213 3077.1286556429213 0 0 0 87.50997233706767,-18.87363979433118" fill="rgb(0, 0, 0)" stroke="rgb(51, 51, 51)" stroke-width="0px"/><text class="type" text-anchor="middle" baseline-shift="30%" alignment-baseline="alphabetic" x="601.201497647249" y="-58.054078970249066" font-size="50px" font-family="&quot;Gill Sans&quot;, &quot;Gill Sans MT&quot;, Calibri, sans-serif">PRIMARY</text></g><g class="relationship" transform="translate(-566.9124595642087,-446.49936828613323) rotate(25.110999795166613)"><path class="relationship" d="M 87.50997233706767,18.87363979433118 L 88.8454810734168,10.985901435642102 A 3069.1286556429213 3069.1286556429213 0 0 0 1036.7701406190927,22.98906027573634 L 1035.067108813615,11.110521532711918 L 1069.0139212023169,22.407155042137962 L 1039.608526961555,42.786624847443704 L 1037.9054951560774,30.908086104419286 A 3077.1286556429213 3077.1286556429213 0 0 1 87.50997233706767,18.87363979433118" fill="rgb(0, 0, 0)" stroke="rgb(51, 51, 51)" stroke-width="0px"/><text class="type" text-anchor="middle" baseline-shift="30%" alignment-baseline="alphabetic" x="601.201497647249" y="58.054078970249066" font-size="50px" font-family="&quot;Gill Sans&quot;, &quot;Gill Sans MT&quot;, Calibri, sans-serif">SECONDARY</text></g></g></g><g class="layer nodes"><circle class="node node-id-3" r="75.56869596192777" fill="rgb(255, 255, 255)" stroke="rgb(0, 0, 0)" stroke-width="8px" cx="247.34625244140616" cy="-541.9496246337891"/><circle class="node node-id-4" r="74.43270955036813" fill="rgb(255, 255, 255)" stroke="rgb(0, 0, 0)" stroke-width="8px" cx="-566.9124595642087" cy="-446.49936828613323"/><circle class="node node-id-5" r="142.88657595286287" fill="rgb(255, 255, 255)" stroke="rgb(0, 0, 0)" stroke-width="8px" cx="542.5833602905277" cy="73.48621826171873"/><circle class="node node-id-6" r="119.06063604792996" fill="rgb(255, 255, 255)" stroke="rgb(0, 0, 0)" stroke-width="8px" cx="-620.9116439819338" cy="136.9572772979737"/><g class="caption"><text class="caption node" text-anchor="middle" alignment-baseline="central" x="247.34625244140616" y="-541.9496246337891" fill="rgb(51, 51, 51)" font-size="50px" font-family="&quot;Gill Sans&quot;, &quot;Gill Sans MT&quot;, Calibri, sans-serif">State</text></g><g class="caption"><text class="caption node" text-anchor="middle" alignment-baseline="central" x="-566.9124595642087" y="-446.49936828613323" fill="rgb(51, 51, 51)" font-size="50px" font-family="&quot;Gill Sans&quot;, &quot;Gill Sans MT&quot;, Calibri, sans-serif">Mine</text></g><g class="caption"><text class="caption node" text-anchor="middle" alignment-baseline="central" x="542.5833602905277" y="73.48621826171873" fill="rgb(51, 51, 51)" font-size="50px" font-family="&quot;Gill Sans&quot;, &quot;Gill Sans MT&quot;, Calibri, sans-serif">Commodity</text></g><g class="caption"><text class="caption node" text-anchor="middle" alignment-baseline="central" x="-620.9116439819338" y="136.9572772979737" fill="rgb(51, 51, 51)" font-size="50px" font-family="&quot;Gill Sans&quot;, &quot;Gill Sans MT&quot;, Calibri, sans-serif">Company</text></g></g><g class="layer properties"><g class="speech-bubble node-speech-bubble" transform="translate(322.91494840333394,-541.9496246337891) "><path class="speech-bubble-outline" transform="scale(1,1) " d="M 0 0 L 20 -10 L 20 -50 A 10 10 0 0 1 30 -60 L 482.05078125 -60 A 10 10 0 0 1 492.05078125 -50 L 492.05078125 50 A 10 10 0 0 1 482.05078125 60 L 30 60 A 10 10 0 0 1 20 50 L 20 10 Z" fill="rgb(255, 255, 255)" stroke="rgb(0, 0, 0)" stroke-width="3px"/><text class="speech-bubble-content property-key" x="282.001953125" y="-25" alignment-baseline="central" text-anchor="end" font-size="50px" font-family="&quot;Gill Sans&quot;, &quot;Gill Sans MT&quot;, Calibri, sans-serif" xml:space="preserve">name: </text><text class="speech-bubble-content property-key" x="282.001953125" y="25" alignment-baseline="central" text-anchor="end" font-size="50px" font-family="&quot;Gill Sans&quot;, &quot;Gill Sans MT&quot;, Calibri, sans-serif" xml:space="preserve">shortName: </text><text class="speech-bubble-content property-value" x="282.001953125" y="-25" alignment-baseline="central" font-size="50px" font-family="&quot;Gill Sans&quot;, &quot;Gill Sans MT&quot;, Calibri, sans-serif">String</text><text class="speech-bubble-content property-value" x="282.001953125" y="25" alignment-baseline="central" font-size="50px" font-family="&quot;Gill Sans&quot;, &quot;Gill Sans MT&quot;, Calibri, sans-serif">String&lt;3&gt;</text></g><g class="speech-bubble node-speech-bubble" transform="translate(-619.5443332293627,-499.1312419512872) "><path class="speech-bubble-outline" transform="scale(-1,-1) " d="M 0 0 L 30 20 L 464.08203125 20 A 10 10 0 0 1 474.08203125 30 L 474.08203125 230 A 10 10 0 0 1 464.08203125 240 L 30 240 A 10 10 0 0 1 20 230 L 20 30 Z" fill="rgb(255, 255, 255)" stroke="rgb(0, 0, 0)" stroke-width="3px"/><text class="speech-bubble-content property-key" x="-282.24609375" y="-205" alignment-baseline="central" text-anchor="end" font-size="50px" font-family="&quot;Gill Sans&quot;, &quot;Gill Sans MT&quot;, Calibri, sans-serif" xml:space="preserve">id: </text><text class="speech-bubble-content property-key" x="-282.24609375" y="-155" alignment-baseline="central" text-anchor="end" font-size="50px" font-family="&quot;Gill Sans&quot;, &quot;Gill Sans MT&quot;, Calibri, sans-serif" xml:space="preserve">name: </text><text class="speech-bubble-content property-key" x="-282.24609375" y="-105" alignment-baseline="central" text-anchor="end" font-size="50px" font-family="&quot;Gill Sans&quot;, &quot;Gill Sans MT&quot;, Calibri, sans-serif" xml:space="preserve">status: </text><text class="speech-bubble-content property-key" x="-282.24609375" y="-55" alignment-baseline="central" text-anchor="end" font-size="50px" font-family="&quot;Gill Sans&quot;, &quot;Gill Sans MT&quot;, Calibri, sans-serif" xml:space="preserve">location: </text><text class="speech-bubble-content property-value" x="-282.24609375" y="-205" alignment-baseline="central" font-size="50px" font-family="&quot;Gill Sans&quot;, &quot;Gill Sans MT&quot;, Calibri, sans-serif">Int</text><text class="speech-bubble-content property-value" x="-282.24609375" y="-155" alignment-baseline="central" font-size="50px" font-family="&quot;Gill Sans&quot;, &quot;Gill Sans MT&quot;, Calibri, sans-serif">String</text><text class="speech-bubble-content property-value" x="-282.24609375" y="-105" alignment-baseline="central" font-size="50px" font-family="&quot;Gill Sans&quot;, &quot;Gill Sans MT&quot;, Calibri, sans-serif">String</text><text class="speech-bubble-content property-value" x="-282.24609375" y="-55" alignment-baseline="central" font-size="50px" font-family="&quot;Gill Sans&quot;, &quot;Gill Sans MT&quot;, Calibri, sans-serif">Coordinates</text></g><g class="speech-bubble node-speech-bubble" transform="translate(643.6194270873237,174.52228505851474) "><path class="speech-bubble-outline" transform="scale(1,1) " d="M 0 0 L 30 20 L 275.3369140625 20 A 10 10 0 0 1 285.3369140625 30 L 285.3369140625 80 A 10 10 0 0 1 275.3369140625 90 L 30 90 A 10 10 0 0 1 20 80 L 20 30 Z" fill="rgb(255, 255, 255)" stroke="rgb(0, 0, 0)" stroke-width="3px"/><text class="speech-bubble-content property-key" x="158.6865234375" y="55" alignment-baseline="central" text-anchor="end" font-size="50px" font-family="&quot;Gill Sans&quot;, &quot;Gill Sans MT&quot;, Calibri, sans-serif" xml:space="preserve">name: </text><text class="speech-bubble-content property-value" x="158.6865234375" y="55" alignment-baseline="central" font-size="50px" font-family="&quot;Gill Sans&quot;, &quot;Gill Sans MT&quot;, Calibri, sans-serif">String</text></g><g class="speech-bubble node-speech-bubble" transform="translate(-620.9116439819338,256.01791334590365) "><path class="speech-bubble-outline" transform="scale(1,1) " d="M 0 0 L -10 20 L -212.21923828125 20 A 10 10 0 0 0 -222.21923828125 30 L -222.21923828125 180 A 10 10 0 0 0 -212.21923828125 190 L 212.21923828125 190 A 10 10 0 0 0 222.21923828125 180 L 222.21923828125 30 A 10 10 0 0 0 212.21923828125 20 L 10 20 Z" fill="rgb(255, 255, 255)" stroke="rgb(0, 0, 0)" stroke-width="3px"/><text class="speech-bubble-content property-key" x="95.56884765625" y="55" alignment-baseline="central" text-anchor="end" font-size="50px" font-family="&quot;Gill Sans&quot;, &quot;Gill Sans MT&quot;, Calibri, sans-serif" xml:space="preserve">name: </text><text class="speech-bubble-content property-key" x="95.56884765625" y="105" alignment-baseline="central" text-anchor="end" font-size="50px" font-family="&quot;Gill Sans&quot;, &quot;Gill Sans MT&quot;, Calibri, sans-serif" xml:space="preserve">listedAt: </text><text class="speech-bubble-content property-key" x="95.56884765625" y="155" alignment-baseline="central" text-anchor="end" font-size="50px" font-family="&quot;Gill Sans&quot;, &quot;Gill Sans MT&quot;, Calibri, sans-serif" xml:space="preserve">HQInCountry: </text><text class="speech-bubble-content property-value" x="95.56884765625" y="55" alignment-baseline="central" font-size="50px" font-family="&quot;Gill Sans&quot;, &quot;Gill Sans MT&quot;, Calibri, sans-serif">String</text><text class="speech-bubble-content property-value" x="95.56884765625" y="105" alignment-baseline="central" font-size="50px" font-family="&quot;Gill Sans&quot;, &quot;Gill Sans MT&quot;, Calibri, sans-serif">String</text><text class="speech-bubble-content property-value" x="95.56884765625" y="155" alignment-baseline="central" font-size="50px" font-family="&quot;Gill Sans&quot;, &quot;Gill Sans MT&quot;, Calibri, sans-serif">String</text></g><g class="speech-bubble relationship-speech-bubble" transform="translate(-593.3301782631976,-161.05813982496613) "><path class="speech-bubble-outline" transform="scale(1,1) " d="M 0 0 L 30 20 L 371.4794921875 20 A 10 10 0 0 1 381.4794921875 30 L 381.4794921875 80 A 10 10 0 0 1 371.4794921875 90 L 30 90 A 10 10 0 0 1 20 80 L 20 30 Z" fill="rgb(255, 255, 255)" stroke="rgb(0, 0, 0)" stroke-width="3px"/><text class="speech-bubble-content property-key" x="271.4794921875" y="55" alignment-baseline="central" text-anchor="end" font-size="50px" font-family="&quot;Gill Sans&quot;, &quot;Gill Sans MT&quot;, Calibri, sans-serif" xml:space="preserve">percentage: </text><text class="speech-bubble-content property-value" x="271.4794921875" y="55" alignment-baseline="central" font-size="50px" font-family="&quot;Gill Sans&quot;, &quot;Gill Sans MT&quot;, Calibri, sans-serif">Float</text></g></g><g class="layer overlay"><circle class="node overlay" r="79.56869596192777" stroke="none" fill="rgba(255, 255, 255, 0)" cx="247.34625244140616" cy="-541.9496246337891"/><circle class="node overlay" r="78.43270955036813" stroke="none" fill="rgba(255, 255, 255, 0)" cx="-566.9124595642087" cy="-446.49936828613323"/><circle class="node overlay" r="146.88657595286287" stroke="none" fill="rgba(255, 255, 255, 0)" cx="542.5833602905277" cy="73.48621826171873"/><circle class="node overlay" r="123.06063604792996" stroke="none" fill="rgba(255, 255, 255, 0)" cx="-620.9116439819338" cy="136.9572772979737"/><circle class="node ring" r="84.56869596192777" fill="none" stroke="rgba(255, 255, 255, 0)" stroke-width="10px" cx="247.34625244140616" cy="-541.9496246337891"/><circle class="node ring" r="83.43270955036813" fill="none" stroke="rgba(255, 255, 255, 0)" stroke-width="10px" cx="-566.9124595642087" cy="-446.49936828613323"/><circle class="node ring" r="151.88657595286287" fill="none" stroke="rgba(255, 255, 255, 0)" stroke-width="10px" cx="542.5833602905277" cy="73.48621826171873"/><circle class="node ring" r="128.06063604792996" fill="none" stroke="rgba(255, 255, 255, 0)" stroke-width="10px" cx="-620.9116439819338" cy="136.9572772979737"/><path class="relationship overlay" fill="rgba(255, 255, 255, 0)" stroke="rgba(255, 255, 255, 0)" stroke-width="10px" transform="translate(-566.9124595642087,-446.49936828613323) rotate(-6.685898820529162)" d="M 89.43270955036813 4 L 697.2654345265973 4 L 697.2654345265973 16 L 729.2654345265973 0 L 697.2654345265973 -16 L 697.2654345265973 -4 L 89.43270955036813 -4 Z"/><path class="relationship overlay" fill="rgba(255, 255, 255, 0)" stroke="rgba(255, 255, 255, 0)" stroke-width="10px" transform="translate(-620.9116439819338,136.9572772979737) rotate(-84.71231196449736)" d="M 134.06063604792996 4 L 464.5174326921589 4 L 464.5174326921589 16 L 496.5174326921589 0 L 464.5174326921589 -16 L 464.5174326921589 -4 L 134.06063604792996 -4 Z"/><path class="relationship overlay" fill="rgba(255, 255, 255, 0)" stroke="rgba(255, 255, 255, 0)" stroke-width="10px" transform="translate(-566.9124595642087,-446.49936828613323) rotate(25.110999795166613)" d="M 87.50997233706767,-18.87363979433118 L 88.8454810734168,-10.985901435642102 A 3069.1286556429213 3069.1286556429213 0 0 1 1036.7701406190927,-22.98906027573634 L 1035.067108813615,-11.110521532711918 L 1069.0139212023169,-22.407155042137962 L 1039.608526961555,-42.786624847443704 L 1037.9054951560774,-30.908086104419286 A 3077.1286556429213 3077.1286556429213 0 0 0 87.50997233706767,-18.87363979433118"/><path class="relationship overlay" fill="rgba(255, 255, 255, 0)" stroke="rgba(255, 255, 255, 0)" stroke-width="10px" transform="translate(-566.9124595642087,-446.49936828613323) rotate(25.110999795166613)" d="M 87.50997233706767,18.87363979433118 L 88.8454810734168,10.985901435642102 A 3069.1286556429213 3069.1286556429213 0 0 0 1036.7701406190927,22.98906027573634 L 1035.067108813615,11.110521532711918 L 1069.0139212023169,22.407155042137962 L 1039.608526961555,42.786624847443704 L 1037.9054951560774,30.908086104419286 A 3077.1286556429213 3077.1286556429213 0 0 1 87.50997233706767,18.87363979433118"/></g></svg>